PathFileType	4	(X/Y/Z)	C:/Users/opensim2020/Desktop/walking_exp_matlab/subject06_walking15_straight_01.trc	
DataRate	CameraRate	NumFrames	NumMarkers	Units	OrigDataRate	OrigDataStartFrame	OrigNumFrames	
100.00	100.00	8	47	mm	100.00	776	232	
Frame#	Time	LFHD			RFHD			LBHD			RBHD			C7			T10			CLAV			STRN			RBAK			LSHO			LUPA			LELB			LFRM			LWRA			LWRB			LFIN			RSHO			RUPA			RELB			RFRM			RWRA			RWRB			RFIN			LASI			RASI			LPSI			RPSI			LTHI			LKNE			LTIB			LANK			LHEE			LTOE			RTHI			RKNE			RTIB			RANK			RHEE			RTOE			*39			*40			*41			*42			*43			*44			*45			*46			
		X1	Y1	Z1	X2	Y2	Z2	X3	Y3	Z3	X4	Y4	Z4	X5	Y5	Z5	X6	Y6	Z6	X7	Y7	Z7	X8	Y8	Z8	X9	Y9	Z9	X10	Y10	Z10	X11	Y11	Z11	X12	Y12	Z12	X13	Y13	Z13	X14	Y14	Z14	X15	Y15	Z15	X16	Y16	Z16	X17	Y17	Z17	X18	Y18	Z18	X19	Y19	Z19	X20	Y20	Z20	X21	Y21	Z21	X22	Y22	Z22	X23	Y23	Z23	X24	Y24	Z24	X25	Y25	Z25	X26	Y26	Z26	X27	Y27	Z27	X28	Y28	Z28	X29	Y29	Z29	X30	Y30	Z30	X31	Y31	Z31	X32	Y32	Z32	X33	Y33	Z33	X34	Y34	Z34	X35	Y35	Z35	X36	Y36	Z36	X37	Y37	Z37	X38	Y38	Z38	X39	Y39	Z39	X40	Y40	Z40	X41	Y41	Z41	X42	Y42	Z42	X43	Y43	Z43	X44	Y44	Z44	X45	Y45	Z45	X46	Y46	Z46	X47	Y47	Z47	

1	0.000	1331.69812	-1099.16223	1657.59570	1463.26855	-1091.31604	1654.98828	1342.07581	-1234.86438	1609.66699	1471.17517	-1225.38110	1611.86646	1399.55298	-1239.23462	1457.87097	1407.76819	-1301.32825	1133.31982	1403.25366	-1133.88586	1372.36292	1398.66113	-1110.77417	1194.80139	1476.17249	-1328.27258	1296.36658	1240.67822	-1180.67188	1408.19507	1163.74548	-1167.09302	1207.71228	1147.85352	-1156.61121	1095.49158	1130.65601	-1091.74084	959.49414	1178.10889	-1001.19098	870.68103	1140.35559	-1056.63440	845.08722	1141.90491	-991.82526	782.31323	1562.93811	-1181.59790	1409.73328	1650.24731	-1253.19751	1222.10217	1665.96960	-1266.15955	1101.43921	1689.34375	-1276.67053	982.56073	1671.94934	-1242.75891	832.79199	1703.59155	-1300.92114	846.18378	1712.48425	-1280.32031	764.34546	1306.81360	-1129.95569	961.75232	1526.94971	-1137.24304	973.51691	1332.03784	-1286.50513	997.64648	1499.91150	-1286.91077	998.75226	1256.93799	-1226.25964	651.95129	1281.53564	-1249.04871	489.36420	1300.38916	-1308.27673	238.55472	1352.83655	-1321.99707	68.91790	1399.46814	-1361.14795	56.48669	1348.43628	-1177.59192	39.75882	1590.44568	-1114.85107	651.26721	1567.14624	-1066.01404	535.79761	1566.20496	-1162.77502	292.96252	1526.01550	-1224.60486	117.41462	1476.37964	-1262.71399	97.35898	1553.33130	-1090.09875	54.53690	1393.37134	-1193.93933	1704.50635																					 
2	0.010	1332.42517	-1092.70239	1657.48840	1464.08130	-1085.07922	1654.50891	1342.48535	-1228.37341	1609.43469	1471.58850	-1219.13574	1611.29382	1399.56433	-1232.74207	1457.39282	1407.55750	-1294.68823	1132.89380	1403.27673	-1127.40576	1371.97986	1398.31519	-1104.14844	1194.46362	1475.71692	-1321.78516	1295.69214	1240.72571	-1174.12170	1407.89221	1163.58691	-1159.75732	1207.71521	1147.74963	-1148.68970	1095.53052	1130.97034	-1081.56409	960.74298	1179.02466	-988.86914	874.32080	1141.60657	-1043.70825	847.23895	1143.52905	-977.46533	785.99353	1563.00439	-1175.48193	1409.05029	1649.40295	-1247.46985	1221.22473	1664.95972	-1260.66638	1100.64282	1688.53137	-1272.31860	981.84576	1672.36475	-1239.84875	831.77197	1702.86169	-1298.39221	845.83203	1712.54688	-1278.91736	764.08252	1306.22375	-1123.83447	961.10297	1526.08081	-1130.15088	973.06561	1332.10742	-1280.23108	997.16290	1499.99585	-1279.92810	998.47083	1256.73035	-1221.46313	651.38806	1281.79248	-1244.87988	488.90308	1300.68982	-1306.45679	238.63974	1353.04358	-1321.69702	69.00747	1399.47595	-1360.78528	56.50023	1348.36230	-1177.60022	39.67546	1589.85474	-1105.77368	651.79022	1566.01318	-1056.80176	536.52783	1566.62244	-1144.65576	289.71228	1527.34644	-1197.45813	110.92388	1477.68433	-1234.55298	89.33174	1554.99744	-1060.40527	53.25693	1394.10205	-1187.58020	1704.15137																					 
3	0.020	1333.28564	-1086.02661	1657.29993	1464.82300	-1078.63428	1653.93066	1342.90918	-1221.72888	1609.12549	1472.00305	-1212.79395	1610.65601	1399.62732	-1226.15393	1456.86365	1407.41040	-1287.87708	1132.35864	1403.36536	-1120.44580	1371.64001	1397.98352	-1097.35535	1194.02588	1475.35803	-1315.19104	1294.99097	1240.75354	-1167.53101	1407.65344	1163.53723	-1152.58691	1207.69385	1147.52832	-1140.99695	1095.47192	1131.77905	-1070.93347	961.92529	1180.13745	-976.65216	878.07867	1143.09009	-1030.89111	849.34589	1145.29333	-963.17267	789.75830	1563.09082	-1169.19336	1408.30005	1648.65381	-1241.63086	1220.29919	1664.08960	-1255.14185	1099.77991	1687.81494	-1268.00549	981.16058	1672.78223	-1236.89331	830.71198	1702.26038	-1295.65979	845.55768	1712.55212	-1277.16943	763.45026	1305.70679	-1117.54944	960.42621	1525.64697	-1122.99084	972.85809	1332.25037	-1273.82239	996.65662	1500.07446	-1272.79407	998.13739	1257.08936	-1216.49695	650.79059	1282.06262	-1240.61963	488.40500	1300.94324	-1304.47461	238.60172	1353.28503	-1321.42017	69.14808	1399.69775	-1360.57178	56.64567	1348.49353	-1177.44177	39.79718	1589.63477	-1097.24463	652.13165	1565.21765	-1048.02600	536.96234	1567.28235	-1126.40186	286.40674	1528.69104	-1169.96143	104.97038	1478.93518	-1206.12524	82.23139	1556.08447	-1030.53613	51.91090	1394.86133	-1181.10315	1703.74097																					 
4	0.030	1334.16003	-1079.21423	1656.96533	1465.72363	-1072.35291	1653.24817	1343.34802	-1215.02173	1608.78711	1472.46594	-1206.36987	1609.93958	1399.72180	-1219.44958	1456.28931	1407.28748	-1281.02600	1131.77527	1403.47034	-1113.77466	1371.10950	1397.69458	-1090.47485	1193.58337	1475.04712	-1308.45557	1294.18616	1240.83179	-1160.86157	1407.40198	1163.43970	-1145.42700	1207.60889	1147.52893	-1133.30945	1095.43115	1132.28076	-1061.04126	963.11407	1181.23755	-964.75983	881.76093	1144.54736	-1018.34296	851.45636	1146.98242	-949.45306	793.54620	1563.20117	-1162.77222	1407.45813	1648.02637	-1235.71423	1219.32532	1663.38269	-1249.55530	1098.94727	1687.10071	-1263.68127	980.52350	1672.97021	-1233.84534	829.64191	1701.64624	-1292.74048	845.11731	1712.53479	-1275.35876	762.96625	1305.19360	-1111.20618	959.70197	1525.13281	-1115.48987	972.39868	1332.34753	-1267.18420	995.93842	1500.20703	-1265.51257	997.71295	1256.89429	-1211.46436	650.11292	1282.36560	-1236.27625	487.87796	1301.14856	-1302.38794	238.61023	1353.44971	-1321.03333	69.23383	1399.84229	-1360.33215	56.82447	1348.52441	-1177.36121	39.75840	1589.62537	-1089.08594	652.20135	1564.89465	-1039.84692	537.08771	1568.04431	-1108.00256	283.13055	1529.86304	-1142.26331	99.60625	1480.11609	-1177.55298	76.06286	1556.35876	-1000.64368	50.39659	1395.70178	-1174.52551	1703.27124																					 
5	0.040	1335.13000	-1072.42236	1656.65881	1466.67871	-1065.75903	1652.50220	1343.82898	-1208.20508	1608.40405	1472.97791	-1199.89856	1609.13354	1399.89856	-1212.70776	1455.64636	1407.18518	-1274.09192	1131.10754	1403.60901	-1107.09338	1370.54688	1397.53882	-1083.34680	1193.06250	1474.84167	-1301.66223	1293.35986	1240.99707	-1154.16846	1407.09485	1163.39380	-1138.45850	1207.45313	1147.54456	-1125.59387	1095.18420	1133.15796	-1050.90173	964.29077	1182.35779	-953.05048	885.49585	1146.22693	-1005.96973	853.73193	1148.98718	-935.69043	797.42194	1563.35498	-1156.24976	1406.56726	1647.53394	-1229.71045	1218.41052	1662.70850	-1244.00537	1098.09851	1686.52893	-1259.17297	979.78827	1673.21899	-1230.67773	828.61896	1701.15234	-1289.67371	844.76727	1712.44177	-1273.30090	762.41693	1304.72644	-1104.77747	958.90472	1524.89209	-1107.80078	972.01178	1332.41992	-1260.50403	995.24774	1500.26367	-1258.18481	997.15704	1257.12866	-1206.12598	649.43317	1282.70215	-1231.90955	487.37604	1301.00269	-1300.54797	238.58929	1353.62695	-1320.68860	69.40642	1400.05151	-1360.16992	57.13094	1348.55896	-1177.22046	39.78530	1589.55042	-1081.55334	651.83081	1564.96936	-1032.23657	536.76141	1568.84741	-1089.57788	280.05908	1531.03540	-1114.37341	94.98524	1481.28662	-1149.04895	71.03078	1556.05750	-970.93469	48.73781	1396.59387	-1167.81946	1702.68298																					 
6	0.050	1336.07239	-1065.58826	1656.22559	1467.68896	-1059.30310	1651.67847	1344.38721	-1201.36633	1607.90747	1473.53809	-1193.28650	1608.21619	1400.12000	-1205.83496	1454.86597	1407.15466	-1267.03516	1130.35803	1403.68372	-1100.05774	1369.91113	1397.34229	-1076.29456	1192.44629	1474.65894	-1294.73145	1292.45813	1241.20874	-1147.34973	1406.70667	1163.38269	-1131.48621	1207.27161	1147.60876	-1118.10095	1095.14258	1133.93628	-1041.16321	965.42523	1183.37854	-941.63385	889.28552	1147.88159	-993.87207	855.93170	1151.24670	-921.91449	801.36920	1563.53931	-1149.50134	1405.56824	1647.21472	-1223.52246	1217.44299	1662.27576	-1238.40637	1097.23572	1686.09192	-1254.50366	979.08533	1672.86560	-1227.37646	827.29938	1700.77234	-1286.33752	844.38556	1712.42957	-1271.04529	761.92920	1304.30701	-1098.16284	958.08966	1524.32617	-1100.44275	971.35077	1332.53418	-1253.67896	994.41992	1500.36584	-1250.71667	996.54517	1257.20117	-1200.80981	648.81854	1283.01184	-1227.54016	486.86072	1301.73804	-1297.93689	238.57600	1353.82410	-1320.21423	69.55756	1400.24854	-1359.89038	57.44408	1348.62537	-1177.03442	39.73196	1589.79333	-1074.56897	651.28070	1565.38623	-1025.11804	536.10986	1569.68030	-1071.37671	277.27380	1532.09753	-1086.54248	91.00335	1482.29443	-1120.54919	66.78827	1555.08154	-941.25012	47.26834	1397.53674	-1161.14124	1702.04675																					 
7	0.060	1337.13098	-1058.53223	1655.70435	1468.67017	-1052.61780	1650.76563	1344.92773	-1194.39258	1607.23950	1474.13159	-1186.58630	1607.16321	1400.43835	-1198.87146	1453.99207	1407.12512	-1259.95068	1129.49756	1403.89941	-1092.84387	1369.22388	1397.16003	-1069.14185	1191.78552	1474.52380	-1287.66016	1291.42627	1241.40930	-1140.53528	1406.30945	1163.55334	-1124.44434	1206.98767	1147.74683	-1110.54358	1094.73987	1134.93152	-1031.44446	966.47021	1183.94727	-930.08820	893.06543	1149.71338	-981.96033	858.19604	1153.33240	-908.70978	805.28601	1563.77527	-1142.62231	1404.45166	1646.99292	-1217.16235	1216.36780	1661.95105	-1232.61987	1096.33252	1685.75500	-1249.61304	978.27136	1672.76514	-1223.84021	826.16138	1700.46716	-1282.74316	843.86823	1712.30920	-1268.33313	761.26404	1304.01575	-1091.33484	957.25830	1523.69666	-1092.89954	970.69116	1332.60974	-1246.74622	993.50818	1500.37476	-1243.15613	995.89575	1257.27295	-1195.09241	648.02332	1283.32434	-1223.15820	486.25363	1301.55115	-1296.01001	238.46779	1354.04932	-1319.78308	69.76406	1400.50305	-1359.62732	57.82246	1348.69934	-1176.80676	39.79892	1590.04993	-1068.17908	650.23663	1566.02002	-1018.47900	535.13202	1570.49341	-1053.47461	274.71106	1533.09290	-1058.99963	87.84795	1483.45581	-1092.65295	63.76324	1553.55176	-911.91168	46.40490	1398.44958	-1154.32690	1701.23425																					 
8	0.070	1338.16492	-1051.49817	1655.08826	1469.68237	-1046.03223	1649.77881	1345.54236	-1187.33301	1606.47498	1474.72046	-1179.84241	1606.04504	1400.80530	-1191.83948	1453.06177	1407.16016	-1252.76587	1128.55408	1404.21936	-1085.68140	1368.38318	1397.08923	-1061.84631	1190.93323	1474.47681	-1280.49268	1290.37927	1241.76343	-1133.60095	1405.76147	1163.70044	-1117.34131	1206.62341	1148.07532	-1103.07043	1094.41931	1135.83582	-1021.92206	967.38879	1185.35193	-919.69958	896.28882	1151.48047	-970.16785	860.20007	1155.48254	-895.93811	808.69366	1564.05676	-1135.62207	1403.27563	1646.88989	-1210.68872	1215.31335	1661.74207	-1226.55469	1095.29468	1685.51843	-1244.62830	977.46600	1672.78271	-1220.19556	825.06573	1700.38574	-1278.94836	843.36865	1712.15247	-1265.39880	760.58386	1303.80859	-1084.31140	956.37085	1523.55139	-1084.86304	969.92938	1332.63123	-1239.67004	992.43695	1500.34070	-1235.46143	994.98706	1257.85779	-1189.04919	647.11835	1283.60742	-1218.87390	485.66089	1302.22595	-1293.59680	238.48416	1354.25586	-1319.36511	69.99499	1400.72729	-1359.47302	58.24781	1348.79272	-1176.64221	39.76840	1590.31628	-1062.28198	648.92157	1566.75708	-1012.24738	533.82990	1571.39026	-1035.92639	272.39047	1533.95374	-1031.92688	85.50916	1484.40186	-1064.95496	61.02291	1551.92407	-883.23444	46.76045	1399.40442	-1147.52026	1700.34436																					 
